<svg width="16" height="16" viewBox="0 0 16 16" fill="none" xmlns="http://www.w3.org/2000/svg">
  <path d="M3 8.5C3 8.5 3.5 8 4.5 8C5.3 8 6 8.7 6 9.5C6 10.3 5.3 11 4.5 11H2.5C1.7 11 1 10.3 1 9.5C1 8.7 1.7 8 2.5 8C3 8 3 8.5 3 8.5" stroke="currentColor" stroke-width="1" stroke-linecap="round" stroke-linejoin="round"/>
  <path d="M8 4V12" stroke="currentColor" stroke-width="1" stroke-linecap="round"/>
  <path d="M6.5 6L8 4L9.5 6" stroke="currentColor" stroke-width="1" stroke-linecap="round" stroke-linejoin="round"/>
  <circle cx="8" cy="8" r="7" stroke="currentColor" stroke-width="1" fill="none"/>
  <path d="M10 8.5C10 8.5 10.5 8 11.5 8C12.3 8 13 8.7 13 9.5C13 10.3 12.3 11 11.5 11H13.5C14.3 11 15 10.3 15 9.5C15 8.7 14.3 8 13.5 8C13 8 13 8.5 13 8.5" stroke="currentColor" stroke-width="1" stroke-linecap="round" stroke-linejoin="round"/>
</svg>